<svg width="118" height="117" viewBox="0 0 118 117" fill="none" xmlns="http://www.w3.org/2000/svg">
<path d="M41.091 91.7323L23.6293 101.247C22.6138 101.799 21.6866 102.483 20.8257 103.234C31.0246 111.821 44.1595 117.009 58.5085 117.009C72.7472 117.009 85.8159 111.909 95.9485 103.454C95.0213 102.66 94.0059 101.953 92.88 101.401L74.1821 92.0634C71.7759 90.8493 70.2306 88.3768 70.2306 85.6836V78.3545C70.7604 77.7585 71.3564 76.9859 71.9966 76.0808C74.5353 72.4825 76.478 68.531 77.8025 64.3808C80.2087 63.6523 81.9747 61.4226 81.9747 58.7957V50.9589C81.9747 49.237 81.2021 47.6917 80.01 46.61V35.2853C80.01 35.2853 82.3279 17.6691 58.4864 17.6691C34.6449 17.6691 36.9629 35.2853 36.9629 35.2853V46.61C35.7708 47.6917 34.9981 49.2149 34.9981 50.9589V58.7957C34.9981 60.8487 36.0798 62.681 37.7134 63.7185C39.6781 72.2396 44.7996 78.3545 44.7996 78.3545V85.507C44.8217 88.0898 43.3868 90.496 41.091 91.7323Z" fill="#E7ECED"/>
<path d="M59.5019 0.00871132C27.2055 -0.543175 0.56036 25.1968 0.0084731 57.5153C-0.300584 75.838 7.86734 92.2842 20.8477 103.234C21.7087 102.483 22.6138 101.821 23.6292 101.269L41.0909 91.7544C43.3868 90.4961 44.7996 88.1119 44.7996 85.507V78.3546C44.7996 78.3546 39.6781 72.2176 37.7134 63.7185C36.1019 62.6589 34.9981 60.8487 34.9981 58.7957V50.9589C34.9981 49.237 35.7707 47.6917 36.9628 46.61V35.2853C36.9628 35.2853 34.6449 17.6691 58.4864 17.6691C82.3279 17.6691 80.01 35.2853 80.01 35.2853V46.61C81.2021 47.6917 81.9747 49.2149 81.9747 50.9589V58.7957C81.9747 61.4227 80.2087 63.6302 77.8024 64.3808C76.4779 68.531 74.5353 72.4825 71.9966 76.0808C71.3564 76.9859 70.7604 77.7585 70.2305 78.3546V85.6836C70.2305 88.3768 71.7538 90.8493 74.1821 92.0634L92.88 101.401C94.0058 101.953 95.0213 102.682 95.9485 103.454C108.554 92.9464 116.699 77.2287 117.008 59.5242C117.56 27.2057 91.8204 0.560598 59.5019 0.00871132Z" fill="#C7CCCD"/>
</svg>
